<mxfile host="app.diagrams.net" agent="Mozilla/5.0 (Windows NT 10.0; Win64; x64) AppleWebKit/537.36 (KHTML, like Gecko) Chrome/130.0.0.0 Safari/537.36" version="24.8.3" pages="3">
  <diagram id="AbwghdhHYIyaeq9mVxnh" name="Admin">
    <mxGraphModel dx="794" dy="446" grid="1" gridSize="10" guides="1" tooltips="1" connect="1" arrows="1" fold="1" page="1" pageScale="1" pageWidth="827" pageHeight="1169" math="0" shadow="0">
      <root>
        <mxCell id="0" />
        <mxCell id="1" parent="0" />
        <mxCell id="MyvBUcLx_-PwGdYpxSLp-1" value="Admin&lt;span style=&quot;white-space: pre;&quot;&gt;&#x9;&lt;/span&gt;" style="swimlane;whiteSpace=wrap;html=1;" parent="1" vertex="1">
          <mxGeometry x="110" y="30" width="200" height="570" as="geometry" />
        </mxCell>
        <mxCell id="MyvBUcLx_-PwGdYpxSLp-2" value="Sistem" style="swimlane;whiteSpace=wrap;html=1;startSize=23;" parent="MyvBUcLx_-PwGdYpxSLp-1" vertex="1">
          <mxGeometry x="200" width="200" height="570" as="geometry" />
        </mxCell>
        <mxCell id="MyvBUcLx_-PwGdYpxSLp-7" value="Menampilkan List Booking Konstruksi Pelanggan" style="rounded=1;whiteSpace=wrap;html=1;" parent="MyvBUcLx_-PwGdYpxSLp-2" vertex="1">
          <mxGeometry x="44" y="170" width="120" height="60" as="geometry" />
        </mxCell>
        <mxCell id="MyvBUcLx_-PwGdYpxSLp-9" value="Mengupdate status booking konstruksi pelanggan" style="rounded=1;whiteSpace=wrap;html=1;" parent="MyvBUcLx_-PwGdYpxSLp-2" vertex="1">
          <mxGeometry x="44" y="270" width="120" height="60" as="geometry" />
        </mxCell>
        <mxCell id="MyvBUcLx_-PwGdYpxSLp-25" value="" style="edgeStyle=orthogonalEdgeStyle;rounded=0;orthogonalLoop=1;jettySize=auto;html=1;" parent="MyvBUcLx_-PwGdYpxSLp-2" source="MyvBUcLx_-PwGdYpxSLp-16" target="MyvBUcLx_-PwGdYpxSLp-17" edge="1">
          <mxGeometry relative="1" as="geometry" />
        </mxCell>
        <mxCell id="MyvBUcLx_-PwGdYpxSLp-16" value="Mengupdate status penyelesaian konstruksi" style="rounded=1;whiteSpace=wrap;html=1;" parent="MyvBUcLx_-PwGdYpxSLp-2" vertex="1">
          <mxGeometry x="50" y="440" width="120" height="60" as="geometry" />
        </mxCell>
        <mxCell id="MyvBUcLx_-PwGdYpxSLp-17" value="" style="ellipse;html=1;shape=endState;fillColor=#000000;strokeColor=#ff0000;" parent="MyvBUcLx_-PwGdYpxSLp-2" vertex="1">
          <mxGeometry x="95" y="530" width="30" height="30" as="geometry" />
        </mxCell>
        <mxCell id="MyvBUcLx_-PwGdYpxSLp-5" value="" style="edgeStyle=orthogonalEdgeStyle;rounded=0;orthogonalLoop=1;jettySize=auto;html=1;" parent="MyvBUcLx_-PwGdYpxSLp-1" source="MyvBUcLx_-PwGdYpxSLp-3" target="MyvBUcLx_-PwGdYpxSLp-4" edge="1">
          <mxGeometry relative="1" as="geometry" />
        </mxCell>
        <mxCell id="MyvBUcLx_-PwGdYpxSLp-3" value="" style="ellipse;html=1;shape=endState;fillColor=#000000;strokeColor=#ff0000;" parent="MyvBUcLx_-PwGdYpxSLp-1" vertex="1">
          <mxGeometry x="85" y="30" width="30" height="30" as="geometry" />
        </mxCell>
        <mxCell id="MyvBUcLx_-PwGdYpxSLp-18" value="" style="edgeStyle=orthogonalEdgeStyle;rounded=0;orthogonalLoop=1;jettySize=auto;html=1;entryX=0.5;entryY=0;entryDx=0;entryDy=0;" parent="MyvBUcLx_-PwGdYpxSLp-1" source="MyvBUcLx_-PwGdYpxSLp-4" target="MyvBUcLx_-PwGdYpxSLp-6" edge="1">
          <mxGeometry relative="1" as="geometry" />
        </mxCell>
        <mxCell id="MyvBUcLx_-PwGdYpxSLp-4" value="Melakukan Login" style="rounded=1;whiteSpace=wrap;html=1;" parent="MyvBUcLx_-PwGdYpxSLp-1" vertex="1">
          <mxGeometry x="40" y="100" width="120" height="40" as="geometry" />
        </mxCell>
        <mxCell id="MyvBUcLx_-PwGdYpxSLp-19" value="" style="edgeStyle=orthogonalEdgeStyle;rounded=0;orthogonalLoop=1;jettySize=auto;html=1;" parent="MyvBUcLx_-PwGdYpxSLp-1" source="MyvBUcLx_-PwGdYpxSLp-6" target="MyvBUcLx_-PwGdYpxSLp-7" edge="1">
          <mxGeometry relative="1" as="geometry" />
        </mxCell>
        <mxCell id="MyvBUcLx_-PwGdYpxSLp-6" value="Memilih Menu Data Booking" style="rounded=1;whiteSpace=wrap;html=1;" parent="MyvBUcLx_-PwGdYpxSLp-1" vertex="1">
          <mxGeometry x="40" y="170" width="120" height="60" as="geometry" />
        </mxCell>
        <mxCell id="MyvBUcLx_-PwGdYpxSLp-22" value="" style="edgeStyle=orthogonalEdgeStyle;rounded=0;orthogonalLoop=1;jettySize=auto;html=1;entryX=1;entryY=0.5;entryDx=0;entryDy=0;exitX=0.5;exitY=1;exitDx=0;exitDy=0;" parent="MyvBUcLx_-PwGdYpxSLp-1" source="MyvBUcLx_-PwGdYpxSLp-9" target="MyvBUcLx_-PwGdYpxSLp-14" edge="1">
          <mxGeometry relative="1" as="geometry" />
        </mxCell>
        <mxCell id="MyvBUcLx_-PwGdYpxSLp-8" value="Melakukan Konfirmasi Booking Pelanggan" style="rounded=1;whiteSpace=wrap;html=1;" parent="MyvBUcLx_-PwGdYpxSLp-1" vertex="1">
          <mxGeometry x="40" y="270" width="120" height="60" as="geometry" />
        </mxCell>
        <mxCell id="MyvBUcLx_-PwGdYpxSLp-23" value="" style="edgeStyle=orthogonalEdgeStyle;rounded=0;orthogonalLoop=1;jettySize=auto;html=1;" parent="MyvBUcLx_-PwGdYpxSLp-1" source="MyvBUcLx_-PwGdYpxSLp-14" target="MyvBUcLx_-PwGdYpxSLp-15" edge="1">
          <mxGeometry relative="1" as="geometry" />
        </mxCell>
        <mxCell id="MyvBUcLx_-PwGdYpxSLp-14" value="Melihat laporan konstruksi" style="rounded=1;whiteSpace=wrap;html=1;" parent="MyvBUcLx_-PwGdYpxSLp-1" vertex="1">
          <mxGeometry x="40" y="350" width="120" height="60" as="geometry" />
        </mxCell>
        <mxCell id="MyvBUcLx_-PwGdYpxSLp-24" value="" style="edgeStyle=orthogonalEdgeStyle;rounded=0;orthogonalLoop=1;jettySize=auto;html=1;" parent="MyvBUcLx_-PwGdYpxSLp-1" source="MyvBUcLx_-PwGdYpxSLp-15" target="MyvBUcLx_-PwGdYpxSLp-16" edge="1">
          <mxGeometry relative="1" as="geometry" />
        </mxCell>
        <mxCell id="MyvBUcLx_-PwGdYpxSLp-15" value="Mengubah status penyelesaian konstruksi" style="rounded=1;whiteSpace=wrap;html=1;" parent="MyvBUcLx_-PwGdYpxSLp-1" vertex="1">
          <mxGeometry x="40" y="440" width="120" height="60" as="geometry" />
        </mxCell>
        <mxCell id="MyvBUcLx_-PwGdYpxSLp-21" value="" style="edgeStyle=orthogonalEdgeStyle;rounded=0;orthogonalLoop=1;jettySize=auto;html=1;entryX=0;entryY=0.5;entryDx=0;entryDy=0;exitX=1;exitY=0.5;exitDx=0;exitDy=0;" parent="MyvBUcLx_-PwGdYpxSLp-1" source="MyvBUcLx_-PwGdYpxSLp-8" target="MyvBUcLx_-PwGdYpxSLp-9" edge="1">
          <mxGeometry relative="1" as="geometry">
            <mxPoint x="190" y="330" as="sourcePoint" />
          </mxGeometry>
        </mxCell>
        <mxCell id="MyvBUcLx_-PwGdYpxSLp-20" value="" style="edgeStyle=orthogonalEdgeStyle;rounded=0;orthogonalLoop=1;jettySize=auto;html=1;entryX=0.5;entryY=0;entryDx=0;entryDy=0;" parent="MyvBUcLx_-PwGdYpxSLp-1" source="MyvBUcLx_-PwGdYpxSLp-7" target="MyvBUcLx_-PwGdYpxSLp-8" edge="1">
          <mxGeometry relative="1" as="geometry">
            <Array as="points">
              <mxPoint x="304" y="250" />
              <mxPoint x="100" y="250" />
            </Array>
          </mxGeometry>
        </mxCell>
      </root>
    </mxGraphModel>
  </diagram>
  <diagram id="ScmFKO4ipwwUju8_5aiv" name="Pelanggan">
    <mxGraphModel dx="1134" dy="637" grid="1" gridSize="10" guides="1" tooltips="1" connect="1" arrows="1" fold="1" page="1" pageScale="1" pageWidth="827" pageHeight="1169" math="0" shadow="0">
      <root>
        <mxCell id="0" />
        <mxCell id="1" parent="0" />
        <mxCell id="UJz-edjViFbgMryIQKm6-1" value="Pelanggan" style="swimlane;whiteSpace=wrap;html=1;startSize=23;" parent="1" vertex="1">
          <mxGeometry x="110" y="30" width="200" height="900" as="geometry" />
        </mxCell>
        <mxCell id="UJz-edjViFbgMryIQKm6-2" value="Sistem" style="swimlane;whiteSpace=wrap;html=1;startSize=23;" parent="UJz-edjViFbgMryIQKm6-1" vertex="1">
          <mxGeometry x="200" width="200" height="900" as="geometry" />
        </mxCell>
        <mxCell id="UJz-edjViFbgMryIQKm6-22" value="Menampilkan Halaman Home Sistem" style="rounded=1;whiteSpace=wrap;html=1;" parent="UJz-edjViFbgMryIQKm6-2" vertex="1">
          <mxGeometry x="48" y="300" width="120" height="60" as="geometry" />
        </mxCell>
        <mxCell id="UJz-edjViFbgMryIQKm6-4" value="Menampilkan Form Booking Konstruksi" style="rounded=1;whiteSpace=wrap;html=1;" parent="UJz-edjViFbgMryIQKm6-2" vertex="1">
          <mxGeometry x="52" y="430" width="120" height="60" as="geometry" />
        </mxCell>
        <mxCell id="UJz-edjViFbgMryIQKm6-18" value="Menampilkan Booking Konstruksi Pelanggan" style="rounded=1;whiteSpace=wrap;html=1;" parent="UJz-edjViFbgMryIQKm6-2" vertex="1">
          <mxGeometry x="52" y="580" width="120" height="60" as="geometry" />
        </mxCell>
        <mxCell id="UJz-edjViFbgMryIQKm6-27" value="Mengupdate Status Konstruksi" style="rounded=1;whiteSpace=wrap;html=1;" parent="UJz-edjViFbgMryIQKm6-2" vertex="1">
          <mxGeometry x="52" y="690" width="120" height="60" as="geometry" />
        </mxCell>
        <mxCell id="UJz-edjViFbgMryIQKm6-16" value="Mengisi Form" style="rounded=1;whiteSpace=wrap;html=1;" parent="UJz-edjViFbgMryIQKm6-2" vertex="1">
          <mxGeometry x="-152" y="510" width="120" height="60" as="geometry" />
        </mxCell>
        <mxCell id="UJz-edjViFbgMryIQKm6-15" value="" style="edgeStyle=orthogonalEdgeStyle;rounded=0;orthogonalLoop=1;jettySize=auto;html=1;entryX=0;entryY=0.5;entryDx=0;entryDy=0;" parent="UJz-edjViFbgMryIQKm6-2" source="UJz-edjViFbgMryIQKm6-16" target="UJz-edjViFbgMryIQKm6-18" edge="1">
          <mxGeometry relative="1" as="geometry">
            <Array as="points">
              <mxPoint x="-92" y="610" />
            </Array>
          </mxGeometry>
        </mxCell>
        <mxCell id="UJz-edjViFbgMryIQKm6-3" value="" style="edgeStyle=orthogonalEdgeStyle;rounded=0;orthogonalLoop=1;jettySize=auto;html=1;entryX=1;entryY=0.5;entryDx=0;entryDy=0;" parent="UJz-edjViFbgMryIQKm6-2" source="UJz-edjViFbgMryIQKm6-4" target="UJz-edjViFbgMryIQKm6-16" edge="1">
          <mxGeometry relative="1" as="geometry">
            <mxPoint x="112" y="530" as="targetPoint" />
            <Array as="points">
              <mxPoint x="108" y="540" />
            </Array>
          </mxGeometry>
        </mxCell>
        <mxCell id="UJz-edjViFbgMryIQKm6-14" value="Memilih Tipe Konstruksi" style="rounded=1;whiteSpace=wrap;html=1;" parent="UJz-edjViFbgMryIQKm6-2" vertex="1">
          <mxGeometry x="-152" y="360" width="120" height="60" as="geometry" />
        </mxCell>
        <mxCell id="UJz-edjViFbgMryIQKm6-25" style="edgeStyle=orthogonalEdgeStyle;rounded=0;orthogonalLoop=1;jettySize=auto;html=1;" parent="UJz-edjViFbgMryIQKm6-2" source="UJz-edjViFbgMryIQKm6-22" target="UJz-edjViFbgMryIQKm6-14" edge="1">
          <mxGeometry relative="1" as="geometry">
            <Array as="points">
              <mxPoint x="108" y="390" />
              <mxPoint x="-92" y="390" />
            </Array>
          </mxGeometry>
        </mxCell>
        <mxCell id="UJz-edjViFbgMryIQKm6-13" value="" style="edgeStyle=orthogonalEdgeStyle;rounded=0;orthogonalLoop=1;jettySize=auto;html=1;" parent="UJz-edjViFbgMryIQKm6-2" source="UJz-edjViFbgMryIQKm6-14" target="UJz-edjViFbgMryIQKm6-4" edge="1">
          <mxGeometry relative="1" as="geometry">
            <Array as="points">
              <mxPoint x="-92" y="460" />
            </Array>
          </mxGeometry>
        </mxCell>
        <mxCell id="UJz-edjViFbgMryIQKm6-20" value="Melakukan Pembayaran" style="rounded=1;whiteSpace=wrap;html=1;" parent="UJz-edjViFbgMryIQKm6-2" vertex="1">
          <mxGeometry x="-152" y="640" width="120" height="60" as="geometry" />
        </mxCell>
        <mxCell id="UJz-edjViFbgMryIQKm6-19" value="" style="edgeStyle=orthogonalEdgeStyle;rounded=0;orthogonalLoop=1;jettySize=auto;html=1;entryX=0;entryY=0.5;entryDx=0;entryDy=0;" parent="UJz-edjViFbgMryIQKm6-2" source="UJz-edjViFbgMryIQKm6-20" target="UJz-edjViFbgMryIQKm6-27" edge="1">
          <mxGeometry relative="1" as="geometry">
            <mxPoint x="-92" y="730" as="targetPoint" />
            <Array as="points">
              <mxPoint x="-92" y="720" />
            </Array>
          </mxGeometry>
        </mxCell>
        <mxCell id="UJz-edjViFbgMryIQKm6-26" style="edgeStyle=orthogonalEdgeStyle;rounded=0;orthogonalLoop=1;jettySize=auto;html=1;entryX=1;entryY=0.5;entryDx=0;entryDy=0;" parent="UJz-edjViFbgMryIQKm6-2" source="UJz-edjViFbgMryIQKm6-18" target="UJz-edjViFbgMryIQKm6-20" edge="1">
          <mxGeometry relative="1" as="geometry">
            <Array as="points">
              <mxPoint x="112" y="670" />
            </Array>
          </mxGeometry>
        </mxCell>
        <mxCell id="UJz-edjViFbgMryIQKm6-31" value="" style="edgeStyle=orthogonalEdgeStyle;rounded=0;orthogonalLoop=1;jettySize=auto;html=1;" parent="UJz-edjViFbgMryIQKm6-2" source="UJz-edjViFbgMryIQKm6-29" target="UJz-edjViFbgMryIQKm6-8" edge="1">
          <mxGeometry relative="1" as="geometry" />
        </mxCell>
        <mxCell id="UJz-edjViFbgMryIQKm6-29" value="Melihat Laporan dan memantau status penyelesaian konstruksi" style="rounded=1;whiteSpace=wrap;html=1;" parent="UJz-edjViFbgMryIQKm6-2" vertex="1">
          <mxGeometry x="-152" y="745" width="120" height="60" as="geometry" />
        </mxCell>
        <mxCell id="UJz-edjViFbgMryIQKm6-30" style="edgeStyle=orthogonalEdgeStyle;rounded=0;orthogonalLoop=1;jettySize=auto;html=1;entryX=1;entryY=0.5;entryDx=0;entryDy=0;" parent="UJz-edjViFbgMryIQKm6-2" source="UJz-edjViFbgMryIQKm6-27" target="UJz-edjViFbgMryIQKm6-29" edge="1">
          <mxGeometry relative="1" as="geometry">
            <Array as="points">
              <mxPoint x="112" y="775" />
            </Array>
          </mxGeometry>
        </mxCell>
        <mxCell id="UJz-edjViFbgMryIQKm6-8" value="" style="ellipse;html=1;shape=endState;fillColor=#000000;strokeColor=#ff0000;" parent="UJz-edjViFbgMryIQKm6-2" vertex="1">
          <mxGeometry x="-107" y="850" width="30" height="30" as="geometry" />
        </mxCell>
        <mxCell id="62PJPewEX-OY_VXHIQzr-13" style="edgeStyle=orthogonalEdgeStyle;rounded=0;orthogonalLoop=1;jettySize=auto;html=1;entryX=0.5;entryY=0;entryDx=0;entryDy=0;" edge="1" parent="UJz-edjViFbgMryIQKm6-2" source="62PJPewEX-OY_VXHIQzr-12" target="62PJPewEX-OY_VXHIQzr-3">
          <mxGeometry relative="1" as="geometry" />
        </mxCell>
        <mxCell id="62PJPewEX-OY_VXHIQzr-12" value="Validasi Login" style="rounded=1;whiteSpace=wrap;html=1;" vertex="1" parent="UJz-edjViFbgMryIQKm6-2">
          <mxGeometry x="48" y="160" width="120" height="40" as="geometry" />
        </mxCell>
        <mxCell id="62PJPewEX-OY_VXHIQzr-15" style="edgeStyle=orthogonalEdgeStyle;rounded=0;orthogonalLoop=1;jettySize=auto;html=1;entryX=0.5;entryY=0;entryDx=0;entryDy=0;" edge="1" parent="UJz-edjViFbgMryIQKm6-2" source="62PJPewEX-OY_VXHIQzr-3" target="UJz-edjViFbgMryIQKm6-22">
          <mxGeometry relative="1" as="geometry" />
        </mxCell>
        <mxCell id="62PJPewEX-OY_VXHIQzr-3" value="" style="rhombus;whiteSpace=wrap;html=1;" vertex="1" parent="UJz-edjViFbgMryIQKm6-2">
          <mxGeometry x="93" y="240" width="30" height="30" as="geometry" />
        </mxCell>
        <mxCell id="62PJPewEX-OY_VXHIQzr-16" value="Tidak&lt;span style=&quot;color: rgba(0, 0, 0, 0); font-family: monospace; font-size: 0px; text-align: start; text-wrap-mode: nowrap;&quot;&gt;%3CmxGraphModel%3E%3Croot%3E%3CmxCell%20id%3D%220%22%2F%3E%3CmxCell%20id%3D%221%22%20parent%3D%220%22%2F%3E%3CmxCell%20id%3D%222%22%20value%3D%22Melakukan%20Login%22%20style%3D%22rounded%3D1%3BwhiteSpace%3Dwrap%3Bhtml%3D1%3B%22%20vertex%3D%221%22%20parent%3D%221%22%3E%3CmxGeometry%20x%3D%22150%22%20y%3D%22190%22%20width%3D%22120%22%20height%3D%2240%22%20as%3D%22geometry%22%2F%3E%3C%2FmxCell%3E%3C%2Froot%3E%3C%2FmxGraphModel%3E&lt;/span&gt;" style="text;html=1;align=center;verticalAlign=middle;whiteSpace=wrap;rounded=0;" vertex="1" parent="UJz-edjViFbgMryIQKm6-2">
          <mxGeometry y="230" width="60" height="30" as="geometry" />
        </mxCell>
        <mxCell id="62PJPewEX-OY_VXHIQzr-17" value="Ya" style="text;html=1;align=center;verticalAlign=middle;whiteSpace=wrap;rounded=0;" vertex="1" parent="UJz-edjViFbgMryIQKm6-2">
          <mxGeometry x="98" y="268" width="60" height="30" as="geometry" />
        </mxCell>
        <mxCell id="UJz-edjViFbgMryIQKm6-9" value="" style="edgeStyle=orthogonalEdgeStyle;rounded=0;orthogonalLoop=1;jettySize=auto;html=1;entryX=0.5;entryY=0;entryDx=0;entryDy=0;" parent="UJz-edjViFbgMryIQKm6-1" source="UJz-edjViFbgMryIQKm6-10" target="62PJPewEX-OY_VXHIQzr-1" edge="1">
          <mxGeometry relative="1" as="geometry">
            <mxPoint x="100" y="90" as="targetPoint" />
          </mxGeometry>
        </mxCell>
        <mxCell id="UJz-edjViFbgMryIQKm6-10" value="" style="ellipse;html=1;shape=endState;fillColor=#000000;strokeColor=#ff0000;" parent="UJz-edjViFbgMryIQKm6-1" vertex="1">
          <mxGeometry x="85" y="30" width="30" height="30" as="geometry" />
        </mxCell>
        <mxCell id="62PJPewEX-OY_VXHIQzr-2" style="edgeStyle=orthogonalEdgeStyle;rounded=0;orthogonalLoop=1;jettySize=auto;html=1;entryX=0.5;entryY=0;entryDx=0;entryDy=0;" edge="1" parent="UJz-edjViFbgMryIQKm6-1" source="62PJPewEX-OY_VXHIQzr-1" target="UJz-edjViFbgMryIQKm6-12">
          <mxGeometry relative="1" as="geometry" />
        </mxCell>
        <mxCell id="62PJPewEX-OY_VXHIQzr-1" value="Register" style="rounded=1;whiteSpace=wrap;html=1;" vertex="1" parent="UJz-edjViFbgMryIQKm6-1">
          <mxGeometry x="40" y="90" width="120" height="40" as="geometry" />
        </mxCell>
        <mxCell id="62PJPewEX-OY_VXHIQzr-18" style="edgeStyle=orthogonalEdgeStyle;rounded=0;orthogonalLoop=1;jettySize=auto;html=1;entryX=0;entryY=0.5;entryDx=0;entryDy=0;" edge="1" parent="UJz-edjViFbgMryIQKm6-1" source="UJz-edjViFbgMryIQKm6-12" target="62PJPewEX-OY_VXHIQzr-12">
          <mxGeometry relative="1" as="geometry" />
        </mxCell>
        <mxCell id="UJz-edjViFbgMryIQKm6-12" value="Melakukan Login" style="rounded=1;whiteSpace=wrap;html=1;" parent="UJz-edjViFbgMryIQKm6-1" vertex="1">
          <mxGeometry x="40" y="160" width="120" height="40" as="geometry" />
        </mxCell>
        <mxCell id="62PJPewEX-OY_VXHIQzr-14" style="edgeStyle=orthogonalEdgeStyle;rounded=0;orthogonalLoop=1;jettySize=auto;html=1;entryX=0.5;entryY=1;entryDx=0;entryDy=0;" edge="1" parent="UJz-edjViFbgMryIQKm6-1" source="62PJPewEX-OY_VXHIQzr-3" target="UJz-edjViFbgMryIQKm6-12">
          <mxGeometry relative="1" as="geometry" />
        </mxCell>
      </root>
    </mxGraphModel>
  </diagram>
  <diagram id="AQJYhSZ1SREnznfhGbaT" name="Mandor">
    <mxGraphModel dx="882" dy="496" grid="1" gridSize="10" guides="1" tooltips="1" connect="1" arrows="1" fold="1" page="1" pageScale="1" pageWidth="827" pageHeight="1169" math="0" shadow="0">
      <root>
        <mxCell id="0" />
        <mxCell id="1" parent="0" />
        <mxCell id="UEh6zjt0sPsAt8goY_3N-1" value="Mandor" style="swimlane;whiteSpace=wrap;html=1;startSize=23;" vertex="1" parent="1">
          <mxGeometry x="110" y="30" width="200" height="540" as="geometry" />
        </mxCell>
        <mxCell id="UEh6zjt0sPsAt8goY_3N-2" value="Sistem" style="swimlane;whiteSpace=wrap;html=1;startSize=23;" vertex="1" parent="UEh6zjt0sPsAt8goY_3N-1">
          <mxGeometry x="200" width="200" height="540" as="geometry" />
        </mxCell>
        <mxCell id="UEh6zjt0sPsAt8goY_3N-3" value="Menampilkan Halaman Home Sistem" style="rounded=1;whiteSpace=wrap;html=1;" vertex="1" parent="UEh6zjt0sPsAt8goY_3N-2">
          <mxGeometry x="40" y="90" width="120" height="60" as="geometry" />
        </mxCell>
        <mxCell id="UEh6zjt0sPsAt8goY_3N-4" value="Menampilkan Detail Konstruksi Pelanggan" style="rounded=1;whiteSpace=wrap;html=1;" vertex="1" parent="UEh6zjt0sPsAt8goY_3N-2">
          <mxGeometry x="44" y="240" width="120" height="60" as="geometry" />
        </mxCell>
        <mxCell id="UEh6zjt0sPsAt8goY_3N-24" value="" style="edgeStyle=orthogonalEdgeStyle;rounded=0;orthogonalLoop=1;jettySize=auto;html=1;" edge="1" parent="UEh6zjt0sPsAt8goY_3N-2" source="UEh6zjt0sPsAt8goY_3N-5" target="UEh6zjt0sPsAt8goY_3N-23">
          <mxGeometry relative="1" as="geometry" />
        </mxCell>
        <mxCell id="UEh6zjt0sPsAt8goY_3N-5" value="Menampilkan List Laporan Konstruksi" style="rounded=1;whiteSpace=wrap;html=1;" vertex="1" parent="UEh6zjt0sPsAt8goY_3N-2">
          <mxGeometry x="44" y="390" width="120" height="60" as="geometry" />
        </mxCell>
        <mxCell id="UEh6zjt0sPsAt8goY_3N-23" value="" style="ellipse;html=1;shape=endState;fillColor=#000000;strokeColor=#ff0000;" vertex="1" parent="UEh6zjt0sPsAt8goY_3N-2">
          <mxGeometry x="89" y="490" width="30" height="30" as="geometry" />
        </mxCell>
        <mxCell id="UEh6zjt0sPsAt8goY_3N-7" value="" style="edgeStyle=orthogonalEdgeStyle;rounded=0;orthogonalLoop=1;jettySize=auto;html=1;" edge="1" parent="UEh6zjt0sPsAt8goY_3N-1" source="UEh6zjt0sPsAt8goY_3N-8" target="UEh6zjt0sPsAt8goY_3N-10">
          <mxGeometry relative="1" as="geometry" />
        </mxCell>
        <mxCell id="UEh6zjt0sPsAt8goY_3N-8" value="" style="ellipse;html=1;shape=endState;fillColor=#000000;strokeColor=#ff0000;" vertex="1" parent="UEh6zjt0sPsAt8goY_3N-1">
          <mxGeometry x="85" y="30" width="30" height="30" as="geometry" />
        </mxCell>
        <mxCell id="UEh6zjt0sPsAt8goY_3N-9" value="" style="edgeStyle=orthogonalEdgeStyle;rounded=0;orthogonalLoop=1;jettySize=auto;html=1;" edge="1" parent="UEh6zjt0sPsAt8goY_3N-1" source="UEh6zjt0sPsAt8goY_3N-10" target="UEh6zjt0sPsAt8goY_3N-3">
          <mxGeometry relative="1" as="geometry" />
        </mxCell>
        <mxCell id="UEh6zjt0sPsAt8goY_3N-10" value="Melakukan Login" style="rounded=1;whiteSpace=wrap;html=1;" vertex="1" parent="UEh6zjt0sPsAt8goY_3N-1">
          <mxGeometry x="40" y="100" width="120" height="40" as="geometry" />
        </mxCell>
        <mxCell id="UEh6zjt0sPsAt8goY_3N-11" value="Membuat Laporan Konstruksi" style="rounded=1;whiteSpace=wrap;html=1;" vertex="1" parent="UEh6zjt0sPsAt8goY_3N-1">
          <mxGeometry x="40" y="320" width="120" height="60" as="geometry" />
        </mxCell>
        <mxCell id="UEh6zjt0sPsAt8goY_3N-12" value="" style="edgeStyle=orthogonalEdgeStyle;rounded=0;orthogonalLoop=1;jettySize=auto;html=1;entryX=0;entryY=0.5;entryDx=0;entryDy=0;" edge="1" parent="UEh6zjt0sPsAt8goY_3N-1" source="UEh6zjt0sPsAt8goY_3N-11" target="UEh6zjt0sPsAt8goY_3N-5">
          <mxGeometry relative="1" as="geometry">
            <Array as="points">
              <mxPoint x="100" y="420" />
            </Array>
          </mxGeometry>
        </mxCell>
        <mxCell id="UEh6zjt0sPsAt8goY_3N-13" value="" style="edgeStyle=orthogonalEdgeStyle;rounded=0;orthogonalLoop=1;jettySize=auto;html=1;entryX=1;entryY=0.5;entryDx=0;entryDy=0;" edge="1" parent="UEh6zjt0sPsAt8goY_3N-1" source="UEh6zjt0sPsAt8goY_3N-4" target="UEh6zjt0sPsAt8goY_3N-11">
          <mxGeometry relative="1" as="geometry">
            <mxPoint x="304" y="340" as="targetPoint" />
            <Array as="points">
              <mxPoint x="300" y="350" />
            </Array>
          </mxGeometry>
        </mxCell>
        <mxCell id="UEh6zjt0sPsAt8goY_3N-14" value="Melihat Detail Konstruksi Pelanggan" style="rounded=1;whiteSpace=wrap;html=1;" vertex="1" parent="UEh6zjt0sPsAt8goY_3N-1">
          <mxGeometry x="40" y="170" width="120" height="60" as="geometry" />
        </mxCell>
        <mxCell id="UEh6zjt0sPsAt8goY_3N-15" style="edgeStyle=orthogonalEdgeStyle;rounded=0;orthogonalLoop=1;jettySize=auto;html=1;" edge="1" parent="UEh6zjt0sPsAt8goY_3N-1" source="UEh6zjt0sPsAt8goY_3N-3" target="UEh6zjt0sPsAt8goY_3N-14">
          <mxGeometry relative="1" as="geometry">
            <Array as="points">
              <mxPoint x="300" y="200" />
              <mxPoint x="100" y="200" />
            </Array>
          </mxGeometry>
        </mxCell>
        <mxCell id="UEh6zjt0sPsAt8goY_3N-16" value="" style="edgeStyle=orthogonalEdgeStyle;rounded=0;orthogonalLoop=1;jettySize=auto;html=1;" edge="1" parent="UEh6zjt0sPsAt8goY_3N-1" source="UEh6zjt0sPsAt8goY_3N-14" target="UEh6zjt0sPsAt8goY_3N-4">
          <mxGeometry relative="1" as="geometry">
            <Array as="points">
              <mxPoint x="100" y="270" />
            </Array>
          </mxGeometry>
        </mxCell>
      </root>
    </mxGraphModel>
  </diagram>
</mxfile>
